<svg width="194" height="194" viewBox="0 0 194 194" fill="none" xmlns="http://www.w3.org/2000/svg">
<ellipse opacity="0.1" cx="97" cy="188.007" rx="96.9114" ry="5.81468" fill="#D3ABA3" fill-opacity="0.62"/>
<path fill-rule="evenodd" clip-rule="evenodd" d="M58.2326 36.8282C58.2326 33.6169 60.836 31.0135 64.0473 31.0135C67.2587 31.0135 69.862 33.6169 69.862 36.8282V40.7047H124.132V36.8282C124.132 33.6169 126.736 31.0135 129.947 31.0135C133.158 31.0135 135.762 33.6169 135.762 36.8282V40.7047H147.391C155.955 40.7047 162.897 47.6469 162.897 56.2105V110.756C176.047 112.637 186.156 123.946 186.156 137.616C186.156 152.602 174.007 164.751 159.021 164.751C148.977 164.751 140.207 159.294 135.516 151.184H44.665C37.1719 151.184 31.0975 145.109 31.0975 137.616V56.2105C31.0975 47.6469 38.0396 40.7047 46.6033 40.7047H58.2326V36.8282ZM133.667 147.307C132.516 144.298 131.885 141.03 131.885 137.616C131.885 122.63 144.034 110.481 159.021 110.481V65.9017H34.9739V137.616C34.9739 142.968 39.3128 147.307 44.665 147.307H133.667ZM55.3253 79.4693C52.1139 79.4693 49.5106 82.0726 49.5106 85.2839V91.0986C49.5106 94.31 52.1139 96.9133 55.3253 96.9133H61.14C64.3513 96.9133 66.9547 94.31 66.9547 91.0986V85.2839C66.9547 82.0726 64.3513 79.4693 61.14 79.4693H55.3253ZM53.3871 85.2839C53.3871 84.2135 54.2548 83.3457 55.3253 83.3457H61.14C62.2104 83.3457 63.0782 84.2135 63.0782 85.2839V91.0986C63.0782 92.1691 62.2104 93.0368 61.14 93.0368H55.3253C54.2548 93.0368 53.3871 92.1691 53.3871 91.0986V85.2839ZM101.843 85.2839C101.843 82.0726 104.446 79.4693 107.657 79.4693H113.472C116.684 79.4693 119.287 82.0726 119.287 85.2839V91.0986C119.287 94.31 116.684 96.9133 113.472 96.9133H107.657C104.446 96.9133 101.843 94.31 101.843 91.0986V85.2839ZM107.657 83.3457C106.587 83.3457 105.719 84.2135 105.719 85.2839V91.0986C105.719 92.1691 106.587 93.0368 107.657 93.0368H113.472C114.543 93.0368 115.41 92.1691 115.41 91.0986V85.2839C115.41 84.2135 114.543 83.3457 113.472 83.3457H107.657ZM132.854 79.4693C129.643 79.4693 127.04 82.0726 127.04 85.2839V91.0986C127.04 94.31 129.643 96.9133 132.854 96.9133H138.669C141.88 96.9133 144.484 94.31 144.484 91.0986V85.2839C144.484 82.0726 141.88 79.4693 138.669 79.4693H132.854ZM130.916 85.2839C130.916 84.2135 131.784 83.3457 132.854 83.3457H138.669C139.74 83.3457 140.607 84.2135 140.607 85.2839V91.0986C140.607 92.1691 139.74 93.0368 138.669 93.0368H132.854C131.784 93.0368 130.916 92.1691 130.916 91.0986V85.2839ZM107.657 108.543C104.446 108.543 101.843 111.146 101.843 114.357V120.172C101.843 123.383 104.446 125.987 107.657 125.987H113.472C116.684 125.987 119.287 123.383 119.287 120.172V114.357C119.287 111.146 116.684 108.543 113.472 108.543H107.657ZM80.5223 79.4693C77.3109 79.4693 74.7076 82.0726 74.7076 85.2839V91.0986C74.7076 94.31 77.3109 96.9133 80.5223 96.9133H86.337C89.5483 96.9133 92.1516 94.31 92.1516 91.0986V85.2839C92.1516 82.0726 89.5483 79.4693 86.337 79.4693H80.5223ZM74.7076 114.357C74.7076 111.146 77.3109 108.543 80.5223 108.543H86.337C89.5483 108.543 92.1516 111.146 92.1516 114.357V120.172C92.1516 123.383 89.5483 125.987 86.337 125.987H80.5223C77.3109 125.987 74.7076 123.383 74.7076 120.172V114.357ZM80.5223 112.419C79.4518 112.419 78.584 113.287 78.584 114.357V120.172C78.584 121.243 79.4518 122.11 80.5223 122.11H86.337C87.4074 122.11 88.2752 121.243 88.2752 120.172V114.357C88.2752 113.287 87.4074 112.419 86.337 112.419H80.5223ZM135.762 137.616C135.762 124.771 146.175 114.357 159.021 114.357C171.866 114.357 182.279 124.771 182.279 137.616C182.279 150.462 171.866 160.875 159.021 160.875C146.175 160.875 135.762 150.462 135.762 137.616ZM154.175 125.018C154.175 122.341 156.344 120.172 159.021 120.172C161.697 120.172 163.866 122.341 163.866 125.018V136.647C163.866 139.323 161.697 141.493 159.021 141.493C156.344 141.493 154.175 139.323 154.175 136.647V125.018ZM159.021 124.049C158.485 124.049 158.051 124.482 158.051 125.018V136.647C158.051 137.182 158.485 137.616 159.021 137.616C159.556 137.616 159.99 137.182 159.99 136.647V125.018C159.99 124.482 159.556 124.049 159.021 124.049ZM159.021 155.06C156.344 155.06 154.175 152.891 154.175 150.215C154.175 147.538 156.344 145.369 159.021 145.369C161.697 145.369 163.866 147.538 163.866 150.215C163.866 152.891 161.697 155.06 159.021 155.06ZM158.051 150.215C158.051 150.75 158.485 151.184 159.021 151.184C159.556 151.184 159.99 150.75 159.99 150.215C159.99 149.679 159.556 149.245 159.021 149.245C158.485 149.245 158.051 149.679 158.051 150.215ZM23.4509 155.583C26.2711 155.583 28.5573 153.296 28.5573 150.476C28.5573 147.656 26.2711 145.37 23.4509 145.37H12.946C10.1258 145.37 7.8396 147.656 7.8396 150.476C7.8396 153.296 10.1258 155.583 12.946 155.583H23.4509ZM24.6809 150.476C24.6809 151.155 24.1302 151.706 23.4509 151.706H12.946C12.2667 151.706 11.7161 151.155 11.7161 150.476C11.7161 149.797 12.2667 149.246 12.946 149.246H23.4509C24.1302 149.246 24.6809 149.797 24.6809 150.476ZM34.5635 176.632C37.3837 176.632 39.6699 174.346 39.6699 171.526V161.021C39.6699 158.201 37.3837 155.915 34.5635 155.915C31.7433 155.915 29.4571 158.201 29.4571 161.021L29.4571 171.526C29.4571 174.346 31.7433 176.632 34.5635 176.632ZM35.7935 171.526C35.7935 172.205 35.2428 172.756 34.5635 172.756C33.8842 172.756 33.3335 172.205 33.3335 171.526V161.021C33.3335 160.342 33.8842 159.791 34.5635 159.791C35.2428 159.791 35.7935 160.342 35.7935 161.021L35.7935 171.526Z" fill="#D3ABA3" fill-opacity="0.62"/>
</svg>
