<svg width="40" height="40" viewBox="0 0 40 40" fill="none" xmlns="http://www.w3.org/2000/svg">
<rect width="40" height="40" rx="6" fill="#101828" fill-opacity="0.32"/>
<path d="M21.4417 27.5C21.2952 27.7525 21.0849 27.9622 20.8319 28.1079C20.5788 28.2536 20.292 28.3303 20 28.3303C19.708 28.3303 19.4212 28.2536 19.1681 28.1079C18.9151 27.9622 18.7048 27.7525 18.5583 27.5M25 16.6666C25 15.3405 24.4732 14.0688 23.5355 13.1311C22.5979 12.1934 21.3261 11.6666 20 11.6666C18.6739 11.6666 17.4021 12.1934 16.4645 13.1311C15.5268 14.0688 15 15.3405 15 16.6666C15 22.5 12.5 24.1666 12.5 24.1666H27.5C27.5 24.1666 25 22.5 25 16.6666Z" stroke="#D0D5DD" stroke-width="1.66667" stroke-linecap="round" stroke-linejoin="round"/>
</svg>
