<svg width="102" height="52" viewBox="0 0 102 52" fill="none" xmlns="http://www.w3.org/2000/svg">
<path d="M38.2933 40.1724C39.0797 39.2919 40.0155 38.1122 40.3456 37.1714C46.0108 28.2933 45.5979 19.0836 45.3453 16.5202C45.2991 16.0451 45.2964 15.5659 45.257 15.0895C44.0563 0.485848 25.6779 0 25.6779 0C19.5033 0 14.797 1.43339 11.2166 3.51233C11.2166 3.51233 11.2126 3.51367 11.2071 3.5177C10.2183 4.09213 9.31646 4.71621 8.492 5.37251C5.72797 7.30919 1.8108 10.2041 1.49704 11.2684C1.31504 11.8858 0.836936 13.8158 0.396864 16.1256C0.337102 16.4423 0.28413 16.7604 0.247458 17.0798C-0.375977 22.502 0.375133 27.135 0.375133 27.135C1.0624 32.2646 2.71811 36.2628 4.40912 39.1698C6.88384 43.4284 10.7317 46.7662 15.3702 48.4251C20.9906 44.6765 30.4344 39.4221 38.2933 40.171V40.1724Z" fill="url(#paint0_linear_3_8456)"/>
<path d="M24.0981 49.4743C26.312 49.2018 28.4295 48.4006 30.289 47.1833C32.9837 45.4184 35.2058 43.483 37.0381 41.4672C26.9069 42.7019 21.3246 46.0867 18.2617 49.2595C20.5042 49.693 22.4872 49.6742 24.0981 49.4756V49.4743Z" fill="#C03A27"/>
<path d="M39.0865 39.9632C37.7799 39.6733 36.1377 39.3029 35.6012 39.1445C34.6627 38.8654 34.2865 38.3084 34.0691 37.844C33.8491 37.381 33.318 36.7314 32.4094 36.7314C31.9408 36.7314 31.4912 36.8629 31.1054 37.1005C30.7224 37.3354 30.4046 37.6763 30.2022 38.095C30.0773 38.3527 29.9238 38.6238 29.7418 38.8922C29.5014 39.2385 29.7662 39.7015 30.19 39.6666C30.7102 39.625 31.3689 39.6022 32.135 39.6425C32.5778 39.6653 32.6335 40.2907 32.2002 40.3847C29.7295 40.9215 25.7282 42.01 22.3488 43.9493C22.156 44.0607 21.9713 43.799 22.141 43.6594C22.5743 43.3051 23.0945 42.9199 23.6908 42.5361C24.0983 42.2744 24.5777 41.9227 25.0789 41.504L25.0843 41.5013C25.0843 41.5013 25.1115 41.4785 25.1591 41.4369C25.3533 41.2732 25.5489 41.0987 25.7472 40.9161C26.2076 40.5001 26.7536 39.982 26.8501 39.7901C28.063 38.4198 29.0694 36.7677 29.136 35.1383C29.261 32.0863 28.4677 29.0974 23.991 28.1995C19.6473 27.3285 12.8235 28.0935 10.7698 21.4836C10.7046 21.2782 10.4221 21.2662 10.342 21.4608C9.60036 23.3035 7.68387 29.1444 10.6924 34.3666C13.9372 39.9941 20.8018 39.8532 24.3061 37.8132C24.757 37.5515 24.6714 36.8831 24.1635 36.7569C22.7672 36.408 20.4337 35.651 18.5037 34.1545C18.6884 34.2431 22.1831 35.9114 25.7105 35.3517C26.3434 35.2497 26.8066 34.7035 26.8039 34.07C26.8012 33.36 26.6382 32.3735 25.9631 31.3495C25.9631 31.3495 26.3842 32.4997 26.2511 33.6915C26.194 34.1988 25.7675 34.5894 25.2528 34.6297C23.2181 34.788 17.6996 34.7384 13.8924 30.261C13.7851 30.1349 13.5868 30.2758 13.6751 30.4167C15.0496 32.6138 17.906 36.1355 22.4969 37.0361C22.6952 37.0763 22.7101 37.3474 22.5173 37.4025C21.4157 37.7018 19.1923 38.0749 16.6062 37.2293C11.5943 35.5946 9.48355 30.6811 10.4751 23.7008C10.5077 23.478 10.8133 23.431 10.9083 23.6337C11.5549 25.0389 13.4265 27.8935 18.0785 28.4183C24.2952 29.1189 28.6362 28.8344 28.3007 35.1397C28.1662 37.691 25.6575 39.6814 22.8215 41.7308L22.2212 42.163C18.63 44.7412 14.7508 47.4791 14.5878 51.5887C14.5702 52.0061 15.1393 52.1578 15.3484 51.7967C17.049 48.8709 22.6911 42.1039 39.0539 40.5041C39.3663 40.4746 39.3962 40.0344 39.0892 39.9673L39.0865 39.9632Z" fill="url(#paint1_linear_3_8456)"/>
<path d="M22.3896 42.0379C23.8157 41.6863 29.0599 36.9875 29.136 35.1354C29.261 32.0834 28.4677 29.0945 23.991 28.1966C19.6473 27.3256 12.8235 28.0906 10.7698 21.4806C10.7046 21.2753 10.4221 21.2632 10.342 21.4578C9.60036 23.3006 7.68387 29.1415 10.6924 34.3637C13.9372 39.9912 20.8018 39.8503 24.3061 37.8102C24.757 37.5485 24.6714 36.8801 24.1635 36.754C22.7672 36.405 20.4337 35.6481 18.5037 34.1516C18.6884 34.2402 22.1831 35.9084 25.7105 35.3488C26.3434 35.2468 26.8066 34.7005 26.8039 34.0671C26.8012 33.3571 26.6382 32.3706 25.9631 31.3466C25.9631 31.3466 26.3842 32.4968 26.2511 33.6886C26.194 34.1959 25.7675 34.5865 25.2528 34.6267C23.2181 34.7851 17.6996 34.7354 13.8924 30.2581C13.7851 30.132 13.5868 30.2729 13.6751 30.4138C15.0496 32.6109 17.906 36.1326 22.4969 37.0331C22.6952 37.0734 22.7101 37.3445 22.5173 37.3995C21.4157 37.6988 19.1923 38.0719 16.6062 37.2264C11.5943 35.5917 9.48355 30.6782 10.4751 23.6978C10.5077 23.475 10.8133 23.4281 10.9083 23.6307C11.5549 25.0359 13.4265 27.8906 18.0785 28.4154C24.2952 29.116 28.6362 28.8314 28.3007 35.1367C28.1594 37.8156 25.3981 39.8771 22.3896 42.0393V42.0379Z" fill="white"/>
<path d="M54.1587 20.5884L52.8239 20.3907V19.5667H57.5532V20.3907L55.9219 20.5884V30.838L60.1733 30.6896L61.1455 27.9213L62.1507 28.0696L61.5739 31.8102H52.791V31.0027L54.1587 30.838V20.5884ZM65.1298 21.0168C64.7783 21.0168 64.5146 20.918 64.3388 20.7202C64.1631 20.5225 64.0752 20.2698 64.0752 19.9622C64.0752 19.6107 64.1795 19.3196 64.3883 19.0889C64.608 18.8582 64.9046 18.7428 65.2781 18.7428C65.6516 18.7428 65.9263 18.8417 66.102 19.0394C66.2778 19.2372 66.3657 19.4898 66.3657 19.7974C66.3657 20.1709 66.2558 20.4676 66.0361 20.6873C65.8274 20.907 65.5308 21.0168 65.1463 21.0168H65.1298ZM64.4707 23.9335L63.2183 23.6369V22.7635L65.7725 22.4505H65.8054L66.1844 22.7471V30.8709L67.5027 31.0027V31.8102H63.1359V31.0027L64.4707 30.8544V23.9335ZM67.9148 22.6647H71.7378V23.4392L70.5678 23.6534L72.2321 28.3992L72.9242 30.4919L73.5174 28.4651L75.1818 23.6534L74.0612 23.4392V22.6647H77.4063V23.4392L76.5495 23.6534L73.3691 31.942H71.9685L68.6563 23.6534L67.9148 23.4392V22.6647ZM82.0921 31.9914C80.7629 31.9914 79.7467 31.5575 79.0436 30.6896C78.3515 29.8218 78.0055 28.6628 78.0055 27.2127C78.0055 26.257 78.1867 25.4166 78.5493 24.6915C78.9118 23.9665 79.4171 23.4062 80.0653 23.0107C80.7244 22.6152 81.4714 22.4175 82.3063 22.4175C83.328 22.4175 84.119 22.7031 84.6792 23.2744C85.2505 23.8346 85.5526 24.6421 85.5855 25.6967C85.5855 26.3668 85.5471 26.8776 85.4702 27.2292H79.8016C79.8236 28.3168 80.0763 29.1956 80.5596 29.8657C81.043 30.5249 81.7296 30.8544 82.6194 30.8544C83.0588 30.8544 83.5148 30.7775 83.9871 30.6237C84.4705 30.459 84.844 30.2667 85.1077 30.047L85.4208 30.772C85.1022 31.1016 84.6298 31.3872 84.0036 31.6289C83.3774 31.8706 82.7403 31.9914 82.0921 31.9914ZM83.7729 26.3558C83.8059 26.1251 83.8223 25.8889 83.8223 25.6473C83.8114 24.9332 83.6576 24.3729 83.361 23.9665C83.0753 23.549 82.6194 23.3403 81.9932 23.3403C81.3561 23.3403 80.8453 23.571 80.4608 24.0324C80.0872 24.4938 79.873 25.2683 79.8181 26.3558H83.7729ZM88.2047 19.5173L86.87 19.336V18.6275L89.523 18.3144H89.5559L89.9185 18.5616V30.8709L91.3191 31.0027V31.8102H86.87V31.0027L88.2047 30.8544V19.5173ZM93.824 35.9133C93.6372 35.9133 93.4504 35.9023 93.2637 35.8803C93.0879 35.8584 92.9616 35.8254 92.8847 35.7815V34.3479C92.9506 34.3918 93.0769 34.4248 93.2637 34.4467C93.4614 34.4687 93.6482 34.4797 93.824 34.4797C94.3513 34.4797 94.8127 34.2929 95.2081 33.9194C95.6146 33.5569 96.0046 32.8538 96.3781 31.8102H95.5871L92.4563 23.6534L91.6982 23.4392V22.6647H95.6695V23.4392L94.4007 23.6369L96.0156 28.498L96.7736 30.9039L97.4822 28.4815L98.9487 23.6369L97.8447 23.4392V22.6647H101.157V23.4392L100.333 23.6369C98.718 28.5804 97.7678 31.3872 97.4822 32.0574C97.1087 33.0021 96.7681 33.7382 96.4605 34.2655C96.1529 34.8038 95.7904 35.2102 95.3729 35.4849C94.9555 35.7705 94.4392 35.9133 93.824 35.9133Z" fill="white"/>
<path d="M66.7332 40.2885V36.0476H66.119L64.6554 39.586H64.6319L63.1683 36.0476H62.554V40.2885H63.0478V37.0204H63.0683L64.4202 40.2591H64.867L66.2189 37.0204H66.2394V40.2885H66.7332ZM70.1835 39.8123H68.0851V38.3546H70.0748V37.8844H68.0851V36.5237H70.1835V36.0476H67.5561V40.2885H70.1835V39.8123ZM73.5104 39.8123H71.412V38.3546H73.4016V37.8844H71.412V36.5237H73.5104V36.0476H70.883V40.2885H73.5104V39.8123ZM75.8115 40.2885V36.5237H77.1488V36.0476H73.9453V36.5237H75.2825V40.2885H75.8115ZM78.2362 40.2885V36.0476H77.7072V40.2885H78.2362ZM79.5822 40.2885V36.9704H79.6086L81.9304 40.2885H82.4447V36.0476H81.9216V39.3774H81.8951L79.5734 36.0476H79.0591V40.2885H79.5822ZM86.8443 38.5339V38.1313H85.1191V38.5956H86.3153V38.672C86.3153 39.3833 85.798 39.8711 85.0457 39.8711C84.1816 39.8711 83.6467 39.2099 83.6467 38.143C83.6467 37.0938 84.1728 36.4649 85.0457 36.4649C85.6423 36.4649 86.0861 36.7911 86.2624 37.3642H86.8178C86.6591 36.5207 85.9626 35.977 85.0457 35.977C83.8583 35.977 83.103 36.8205 83.103 38.146C83.103 39.4949 83.8613 40.359 85.0457 40.359C86.1772 40.359 86.8443 39.6801 86.8443 38.5339ZM87.3204 39.1217C87.3704 39.8711 87.9934 40.359 88.8927 40.359C89.8685 40.359 90.4798 39.8741 90.4798 39.0982C90.4798 38.4898 90.1241 38.1518 89.2454 37.9314L88.8016 37.8139C88.2256 37.664 87.9905 37.473 87.9905 37.1526C87.9905 36.7382 88.3725 36.4531 88.9221 36.4531C89.4746 36.4531 89.842 36.7323 89.889 37.1879H90.418C90.3945 36.4767 89.7832 35.977 88.9398 35.977C88.0581 35.977 87.4409 36.4708 87.4409 37.1761C87.4409 37.7522 87.7877 38.096 88.5694 38.2959L89.1132 38.4369C89.6833 38.5839 89.9331 38.8043 89.9331 39.1628C89.9331 39.5802 89.5158 39.8829 88.9427 39.8829C88.3373 39.8829 87.9023 39.5802 87.8523 39.1217H87.3204Z" fill="#C13927"/>
<defs>
<linearGradient id="paint0_linear_3_8456" x1="-0.00110126" y1="24.2132" x2="45.4689" y2="24.2132" gradientUnits="userSpaceOnUse">
<stop stop-color="#C52127"/>
<stop offset="1" stop-color="#F47B20"/>
</linearGradient>
<linearGradient id="paint1_linear_3_8456" x1="9.0557" y1="36.6576" x2="39.3025" y2="36.6576" gradientUnits="userSpaceOnUse">
<stop stop-color="#178FC3"/>
<stop offset="1" stop-color="#263877"/>
</linearGradient>
</defs>
</svg>
